<?xml version="1.0" encoding="UTF-8"?>
<!-- Generator: Adobe Illustrator 21.0.0, SVG Export Plug-In . SVG Version: 6.00 Build 0)  -->
<svg xmlns="http://www.w3.org/2000/svg" xmlns:xlink="http://www.w3.org/1999/xlink" xmlns:dc="http://purl.org/dc/elements/1.1/" xmlns:cc="http://creativecommons.org/ns#" xmlns:rdf="http://www.w3.org/1999/02/22-rdf-syntax-ns#" version="1.1" id="DESIGNS" x="0px" y="0px" width="32px" height="32px" viewBox="0 0 32 32" style="enable-background:new 0 0 32 32;" xml:space="preserve">
<title property="dc:title">to fly</title><desc property="dc:description">An icon for "fly" from the Dashing series on to [icon]. Downloaded from http://www.toicon.com/icons/dashing_fly by 14.18.249.35 on 2018-09-07. Licensed CC-BY, see http://toicon.com/license/ for details.</desc>
<path class="dashing_een" d="M16.223,19.82c0.195,0.195,0.195,0.512,0,0.707l-1.414,1.414c-0.195,0.195-0.512,0.195-0.707,0  s-0.195-0.512,0-0.707l1.414-1.414C15.712,19.624,16.028,19.624,16.223,19.82z M31.854,4.854L18,18.707V27.5  c0,0.202-0.122,0.385-0.309,0.462C17.63,27.988,17.564,28,17.5,28c-0.13,0-0.258-0.051-0.354-0.146l-11.5-11.5  C5.553,16.26,5.5,16.133,5.5,16v-4h-5c-0.202,0-0.385-0.122-0.462-0.309s-0.034-0.402,0.108-0.545l5.5-5.5  c0.195-0.195,0.512-0.195,0.707,0L11,10.293l6.146-6.146C17.24,4.053,17.367,4,17.5,4h14c0.202,0,0.385,0.122,0.462,0.309  S31.996,4.71,31.854,4.854z M5.5,11V7.207L1.707,11H5.5z M30.293,5H17.707l-7.768,7.767c-0.195,0.195-0.512,0.195-0.707,0  s-0.195-0.512,0-0.707l1.061-1.061L6.5,7.207v7.585l0.61-0.61c0.195-0.195,0.512-0.195,0.707,0c0.195,0.195,0.195,0.512,0,0.707  L6.707,16L17,26.293V18.5c0-0.133,0.053-0.26,0.146-0.354L30.293,5z" style="fill: #0B1719;"/>
<metadata><work rdf:about=""><format>image/svg+xml</format><type rdf:resource="http://purl.org/dc/dcmitype/StillImage"/><license rdf:resource="http://creativecommons.org/licenses/by/4.0/"/><attributionname>Katinka Berghuis</attributionname><attributionurl>http://www.toicon.com/icons/dashing_fly</attributionurl></work></metadata></svg>
